<svg height="80" viewBox="0 0 80 80" width="80" xmlns="http://www.w3.org/2000/svg"><g fill="none"><path d="m40 80c22.0913911 0 40-17.9086089 40-40s-17.9086089-40-40-40-40 17.9086089-40 40 17.9086089 40 40 40z" fill="#2a384a"/><path d="m40.017902 17.2953381v11.9359946h10.7851395v7.6889272h-10.7851395v10.8538766c0 2.652132.1410919 4.3551007.4193289 5.1089062.2792238.751832.7991915 1.3527056 1.5579302 1.8026209 1.0044161.6067936 2.1538706.9096971 3.4493502.9096971 2.2979226 0 4.5859784-.7538054 6.863181-2.2594428v7.2144305c-.3274122.1553087-1.0828576 2.4942641-8.842149 2.4942669-12.5917069.0000032-12.591707-8.8670797-12.591707-10.9578042l.0000001-15.1665512h-6.2009848v-7.4678862c1.7858477-.5841004 2.9546211-1.3077634 4.2264211-2.3980186 1.2737732-1.0902551 2.2939757-2.399548 3.0635676-3.9288652.7705785-1.5263572 1.3004129-3.8210144 1.5914765-6.1830695h6.4635852z" fill="#fff"/></g></svg>