<svg height="80" viewBox="0 0 80 80" width="80" xmlns="http://www.w3.org/2000/svg"><g fill="none"><circle cx="40" cy="40" fill="#1686b0" r="40"/><path d="m29 58.1666667h-7.6666667v-24.6666667h7.6666667zm-4.1666667-27.8333334c-2.8333333 0-4.6666666-1.8333333-4.6666666-4.3333333s1.8333333-4.3333333 4.6666666-4.3333333c2.8333334 0 4.6666667 1.8333333 4.6666667 4.3333333s-1.6666667 4.3333333-4.6666667 4.3333333zm35 27.8333334h-8.8333333v-12.8333334c0-3.3333333-1.3333333-5.6666666-4.3333333-5.6666666-2.3333334 0-3.5 1.5-4.1666667 3-.1666667.5-.1666667 1.3333333-.1666667 2v13.3333333h-8.6666666s.1666666-22.6666667 0-24.6666667h8.6666666v3.8333334c.5-1.6666667 3.3333334-4.1666667 7.6666667-4.1666667 5.5 0 9.8333333 3.5 9.8333333 11.1666667z" fill="#fff"/></g></svg>