<svg height="40" viewBox="0 0 40 40" width="40" xmlns="http://www.w3.org/2000/svg"><g fill="none"><path d="m20 40c11.0456955 0 20-8.9543045 20-20 0-11.04569553-8.9543045-20-20-20-11.04569553 0-20 8.95430447-20 20 0 11.0456955 8.95430447 20 20 20z" fill="#2a384a"/><path d="m20.008951 8.64766907v5.96799723h5.3925697v3.8444636h-5.3925697v5.4269384c0 1.326066.0705459 2.1775503.2096645 2.554453.1396118.375916.3995957.6763528.778965.9013105.5022081.3033968 1.0769354.4548485 1.7246752.4548485 1.1489612 0 2.2929892-.3769026 3.4315904-1.1297214v3.6072153c-.163706.0776543-.5414288 1.2471321-4.4210744 1.2471335-6.2958535.0000016-6.2958536-4.4335399-6.2958536-5.4789022l.0000001-7.5832756h-3.1004924v-3.733943c.8929239-.2920502 1.4773105-.6538818 2.1132105-1.1990094.6368866-.5451275 1.1469879-1.199774 1.5317838-1.9644326.3852893-.7631786.6502065-1.91050717.7957383-3.0915347h3.2317926z" fill="#fff"/></g></svg>