<svg height="40" viewBox="0 0 40 40" width="40" xmlns="http://www.w3.org/2000/svg"><path d="m31.2246667 29.4246667v-7.808c0-4.1833334-2.2333334-6.13-5.2106667-6.13-2.4026667 0-3.4793333 1.322-4.0793333 2.2493333v-1.9293333h-4.5266667c.06 1.278 0 13.618 0 13.618h4.5266667v-7.6053334c0-.406.0293333-.8126666.1493333-1.1033333.3266667-.8133333 1.0713333-1.6553333 2.3213333-1.6553333 1.6386667 0 2.2933334 1.2486666 2.2933334 3.0786666v7.286h4.526zm-18.5853334-15.4766667c1.578 0 2.5613334-1.0466667 2.5613334-2.354-.0293334-1.3353333-.9833334-2.352-2.5313334-2.352s-2.5606666 1.016-2.5606666 2.352c0 1.3073333.9826666 2.354 2.502 2.354zm7.3606667 26.052c-11.04533333 0-20-8.9546667-20-20 0-11.046 8.95466667-20 20-20 11.0453333 0 20 8.954 20 20 0 11.0453333-8.9546667 20-20 20zm-5.0973333-10.5753333v-13.618h-4.526v13.618z" fill="#007ab9" fill-rule="evenodd"/></svg>