<?xml version="1.0" encoding="UTF-8"?>
<svg width="80px" height="80px" viewBox="0 0 80 80" version="1.1" xmlns="http://www.w3.org/2000/svg" xmlns:xlink="http://www.w3.org/1999/xlink">
    <!-- Generator: Sketch 51.2 (57519) - http://www.bohemiancoding.com/sketch -->
    <title>if_facebook_circle_color_107175</title>
    <desc>Created with Sketch.</desc>
    <defs></defs>
    <g id="Page-1" stroke="none" stroke-width="1" fill="none" fill-rule="evenodd">
        <g id="if_facebook_circle_color_107175" fill="#3A589B">
            <path d="M34.3533333,61.76 L43.3453333,61.76 L43.3453333,39.9973333 L49.344,39.9973333 L50.1386667,32.4986667 L43.3453333,32.4986667 L43.3546667,28.744 C43.3546667,26.7893333 43.5413333,25.74 46.3466667,25.74 L50.096,25.74 L50.096,18.24 L44.096,18.24 C36.8893333,18.24 34.3533333,21.8786667 34.3533333,27.996 L34.3533333,32.4986667 L29.8613333,32.4986667 L29.8613333,39.9986667 L34.3533333,39.9986667 L34.3533333,61.76 Z M40,80 C17.9093333,80 0,62.0906667 0,40 C0,17.908 17.9093333,0 40,0 C62.0906667,0 80,17.908 80,40 C80,62.0906667 62.0906667,80 40,80 Z" id="Shape"></path>
        </g>
    </g>
</svg>