<?xml version="1.0" encoding="UTF-8"?>
<svg width="80px" height="80px" viewBox="0 0 80 80" version="1.1" xmlns="http://www.w3.org/2000/svg" xmlns:xlink="http://www.w3.org/1999/xlink">
    <!-- Generator: Sketch 51.2 (57519) - http://www.bohemiancoding.com/sketch -->
    <title>Shape</title>
    <desc>Created with Sketch.</desc>
    <defs></defs>
    <g id="Page-1" stroke="none" stroke-width="1" fill="none" fill-rule="evenodd">
        <path d="M39.9974994,0 C17.9094774,0 0,18.3616883 0,41.0125563 C0,59.1306868 11.4578645,74.5030246 27.3568392,79.9279524 C29.3573393,80.3022621 29.9874969,79.0870373 29.9874969,78.0000007 C29.9874969,77.0257698 30.0075019,74.3030509 29.9874969,70.880424 C18.8622156,73.3595852 16.5566392,65.4785702 16.5566392,65.4785702 C14.7386847,60.7407316 12.1180295,59.4793589 12.1180295,59.4793589 C8.48712178,56.9361036 12.3905976,56.9848151 12.3905976,56.9848151 C16.404101,57.2745206 18.5196299,61.2124644 18.5196299,61.2124644 C22.088022,67.4757435 27.8794699,65.665725 30.1575394,64.6197087 C30.5226307,61.9687752 31.5578895,60.1613206 32.7006752,59.1358144 C23.8184546,58.1000531 14.4811203,54.5825669 14.4811203,38.8666846 C14.4811203,34.3877863 16.0390098,30.7292929 18.5971493,27.8630031 C18.1845461,26.8272419 16.8092023,22.6559955 18.9897474,17.0080201 C18.9897474,17.0080201 22.348087,15.905601 29.9874969,21.2151593 C33.1782946,20.3050225 36.6016504,19.851236 40.0025006,19.8358535 C43.4008502,19.851236 46.8217054,20.3050225 50.0175044,21.2151593 C57.6569142,15.9081648 61.0102526,17.0080201 61.0102526,17.0080201 C63.1907977,22.6559955 61.8179545,26.8272419 61.407852,27.8630031 C63.9659915,30.7292929 65.5188797,34.3877863 65.5188797,38.8666846 C65.5188797,54.6235871 56.1665416,58.0897981 47.2543136,59.1024854 C48.6896724,60.3715493 49.9924981,62.8327642 49.9924981,66.6579023 C49.9924981,71.7854332 49.9924981,76.6617151 49.9924981,78.0102558 C49.9924981,79.1075474 50.6376594,80.3202085 52.668167,79.9228248 C68.552138,74.4902058 80,59.1255593 80,41.0125563 C80,18.3616883 62.0905226,0 39.9974994,0 Z" id="Shape" fill="#181616"></path>
    </g>
</svg>