<svg height="40" viewBox="0 0 40 40" width="40" xmlns="http://www.w3.org/2000/svg"><path d="m19.9987497 0c-11.04401102 0-19.9987497 9.18084415-19.9987497 20.5062781 0 9.0590653 5.72893223 16.7452342 13.6784196 19.4576981 1.0002501.1871549 1.3153288-.4204576 1.3153288-.9639758 0-.4871155.0100025-1.8484749 0-3.5597884-5.56264062 1.2395806-6.71542882-2.7009269-6.71542882-2.7009269-.90897724-2.3689193-2.21930483-2.9996056-2.21930483-2.9996056-1.81545386-1.2716277.13628407-1.2472719.13628407-1.2472719 2.00675169.1448527 3.06451613 2.1138246 3.06451613 2.1138246 1.78419605 3.1316395 4.67991995 2.2266303 5.81895475 1.7036222.1825456-1.3254668.700175-2.2291941 1.2715679-2.7419472-4.4411103-.5178806-9.10977746-2.2766238-9.10977746-10.1345649 0-2.2394492.77894474-4.0686958 2.0580145-5.5018407-.20630157-.5178807-.89397349-2.6035039.19629908-5.42749153 0 0 1.67916978-.55120958 5.49887468 2.10356953 1.5953989-.4550683 3.3070768-.68196158 5.0075019-.68965287 1.6991748.00769129 3.4096024.23458457 5.0075019.68965287 3.8197049-2.65349722 5.4963741-2.10356953 5.4963741-2.10356953 1.0902725 2.82398763.4038509 4.90961083.1987997 5.42749153 1.2790697 1.4331449 2.0555139 3.2623915 2.0555139 5.5018407 0 7.8784513-4.6761691 9.6115567-9.1322831 10.1179004.7176794.634532 1.3690923 1.8651394 1.3690923 3.7777084v5.6761768c0 .5486458.3225806 1.1549763 1.3378344.9562845 7.9419855-2.7163095 13.6659165-10.3986327 13.6659165-19.4551343 0-11.32543395-8.9547387-20.5062781-20.0012503-20.5062781z" fill="#181616" fill-rule="evenodd"/></svg>