<svg height="40" viewBox="0 0 40 40" width="40" xmlns="http://www.w3.org/2000/svg"><path d="m18.5714288 39.9493094c-4.7741936-.3548388-9.12903235-2.3179724-12.54838724-5.6589863-4.49769592-4.3870968-6.65437798-10.5990785-5.85714294-16.8387099.99539172-7.80184347 6.49769595-14.29953942 14.05529978-16.59907862 5.843318-1.77880188 12.3456223-.72350232 17.2995394 2.80184335 6.0875577 4.3364056 9.2534564 11.52995407 8.3133642 18.89400947-.9953917 7.8018435-6.497696 14.2995394-14.0552998 16.5990786-2.2488479.686636-4.8709678.9769586-7.2073734.8018434zm5.4608296-12.949309c.7603687-.1059908 1.4976959-.3548387 2.1336406-.718894 1.7235023-.9953917 2.8801844-2.6175116 3.1474655-4.4193549l.0506912-.3317973.2442397.0875576c.8110599.2857143 1.8940092.2119816 2.6728111-.1751152.9124424-.4562212 1.6774194-1.3778802 1.9124424-2.2995392.1105991-.4285714.1198157-1.0967742.0230415-1.562212-.0368664-.1751152-.1658986-.5207373-.281106-.7603687-.1889401-.3778801-.281106-.5023041-.6820277-.8986175-.5023041-.5023041-.8847926-.7419355-1.5253456-.9493087-.2995392-.0967742-.4147466-.1059908-1.6820277-.1198157-.7465438-.0092166-3.1797236 0-5.40553.0184332l-4.0506913.0368663-.0875576.1105991c-.0829494.1059908-.0875577.2626728-.0875577 5.7603688v5.6589862l.1059908.0967742c.1705069.1612903.9723503.4009217 1.6221199.483871.3087557.0414746 1.562212.0276498 1.8894009-.0184332zm-5.3133641-1.5023042c.0921659-.0967742.0967742-.1935484.2119816-3.7281106l.1152073-3.6267282-.1198156-1.5253456c-.1105991-1.4285715-.124424-1.529954-.2165899-1.6036867-.2258065-.1797235-.686636-.1520737-.8341014.0552995-.0691244.0967742-.0921659.3317973-.1612903 1.5806452-.078341 1.4009217-.078341 1.6267282 0 5.0184333.0829493 3.7926268.078341 3.7142858.313364 3.8847927.1474655.1059908.562212.0737327.6912443-.0552996zm-2.8248848-.9677419c.0921659-.078341.0967741-.1889401.235023-3.2396314l.1428571-3.1520738-.1474654-1.5253456c-.1059908-1.1520738-.1612903-1.5391706-.2119816-1.5990784-.156682-.1751152-.6543779-.1612903-.7695852.0230415-.046083.0691244-.1013825.562212-.1797235 1.6221198l-.1105991 1.5207374.1059908 2.8341014c.0599078 1.5576037.1059908 2.9631337.1059908 3.124424.0046082.3870968.0875576.4700461.4608295.4700461.18894 0 .2995391-.0230415.3686636-.078341zm-2.8294932-.0322581c.0829493-.0599078.1013825-.2857143.2580645-3.2119816l.170507-3.1520738-.170507-1.5299539c-.1013824-.9170507-.1935483-1.5529954-.2304147-1.5990784-.1382489-.1658986-.6221198-.1428571-.6958526.0322581-.0230414.0552995-.1059907.7741935-.1797235 1.5990783l-.1382488 1.4976959.1336405 2.9262673c.0737328 1.608295.1382489 3.013825.1382489 3.1244241 0 .2672811.1152074.3778801.40553.3778801.1244239 0 .2626728-.0276497.3087557-.0645161zm-2.8202765-1.6036866c.0691244-.0506913.1059908-.40553.2764977-2.4147466l.1981567-2.3548388-.1981567-1.5391705c-.1797235-1.40553-.2073733-1.5483871-.2995392-1.6267281-.1198157-.0921659-.42396313-.078341-.52073733.0276497-.03686636.0368664-.12442396.6589862-.22580645 1.6036867l-.17050692 1.5437788.16129033 2.2396314c.0921659 1.2304148.16589862 2.281106.16589862 2.3364056 0 .0506912.03225806.1290322.07373272.1658986.0875576.0875576.42857143.0967742.53917053.0184332zm-2.78801849-2.7188941c.02304147-.0322581.14746544-.5069124.26728111-1.0599078l.22119816-.9953918-.22119816-.9861751c-.12442397-.5391705-.23963134-1-.25806452-1.0184332-.05529954-.0645161-.41935485-.0460829-.48847927.0230415-.03686636.0322581-.15207374.4930876-.25806452 1.0184332l-.1889401.953917.19815669 1.0138249c.14285714.7419355.21658986 1.0276498.2718894 1.0599079.10599079.0645161.40092167.0552995.45622121-.0092166z" fill="#ff3a00" transform="matrix(1 0 0 -1 0 40.000001)"/></svg>