<svg height="80" viewBox="0 0 80 80" width="80" xmlns="http://www.w3.org/2000/svg"><path d="m37.1428577 79.8986187c-9.5483872-.7096774-18.2580648-4.6359448-25.0967746-11.3179725-8.99539181-8.7741937-13.30875593-21.198157-11.71428586-33.6774199 1.99078344-15.6036868 12.99539186-28.59907874 28.11059946-33.19815715 11.6866362-3.55760374 24.6912446-1.44700463 34.5990789 5.60368672 12.1751154 8.67281123 18.5069127 23.05990813 16.6267284 37.78801903-1.9907835 15.6036868-12.9953919 28.5990787-28.1105995 33.1981571-4.497696 1.373272-9.7419357 1.9539171-14.4147468 1.6036867zm10.9216591-25.8986179c1.5207374-.2119816 2.9953918-.7096774 4.2672812-1.437788 3.4470047-1.9907835 5.7603688-5.2350232 6.294931-8.8387098l.1013825-.6635945.4884792.1751152c1.6221199.5714286 3.7880185.4239631 5.3456222-.3502304 1.8248849-.9124424 3.3548388-2.7557604 3.8248849-4.5990784.2211982-.8571429.2396313-2.1935485.0460829-3.1244241-.0737327-.3502304-.3317972-1.0414746-.5622119-1.5207373-.3778802-.7557604-.562212-1.0046083-1.3640554-1.7972351-1.0046083-1.0046083-1.7695852-1.4838709-3.0506913-1.8986175-.5990783-.1935484-.8294931-.2119816-3.3640553-.2396313-1.4930876-.0184332-6.3594471 0-10.8110601.0368663l-8.1013826.0737327-.1751152.2211982c-.1658986.2119816-.1751152.5253456-.1751152 11.5207375v11.3179725l.2119816.1935484c.3410138.3225807 1.9447005.8018433 3.2442396.967742.6175116.0829493 3.1244241.0552995 3.7788019-.0368664zm-10.6267282-3.0046083c.1843318-.1935484.1935484-.3870968.4239631-7.4562213l.2304148-7.2534564-.2396314-3.0506913c-.2211981-2.8571429-.2488479-3.0599078-.4331797-3.2073733-.4516129-.359447-1.3732719-.3041475-1.6682028.1105991-.1382488.1935484-.1843318.6635945-.3225806 3.1612904-.1566821 2.8018433-.1566821 3.2534562 0 10.0368665.1658986 7.5852535.156682 7.4285715.6267281 7.7695853.2949309.2119816 1.124424.1474655 1.3824885-.110599zm-5.6497697-1.9354839c.1843318-.1566821.1935484-.3778802.4700461-6.4792628l.2857143-6.3041476-.2949309-3.0506913c-.2119816-2.3041475-.3225806-3.078341-.4239631-3.1981567-.3133641-.3502304-1.3087558-.3225806-1.5391706.046083-.0921659.1382488-.2027649 1.1244239-.359447 3.2442396l-.2211981 3.0414747.2119815 5.6682029c.1198157 3.1152074.2119816 5.9262674.2119816 6.248848.0092166.7741936.1751152.9400922.921659.9400922.3778802 0 .5990784-.046083.7373272-.156682zm-5.6589863-.0645162c.1658987-.1198156.202765-.5714285.5161291-6.4239632l.3410138-6.3041476-.3410138-3.0599078c-.202765-1.8341014-.3870968-3.1059909-.4608295-3.1981568-.2764977-.3317972-1.2442397-.2857143-1.3917051.0645162-.046083.110599-.2119816 1.5483871-.359447 3.1981567l-.2764977 2.9953917.2672811 5.8525347c.1474654 3.2165899.2764977 6.0276499.2764977 6.248848 0 .5345622.2304147.7557604.8110599.7557604.2488479 0 .5253456-.0552995.6175115-.1290323zm-5.640553-3.2073733c.1382488-.1013825.2119815-.8110599.5529954-4.8294931l.3963133-4.7096775-.3963133-3.0783411c-.359447-2.8110599-.4147466-3.0967742-.5990784-3.2534563-.2396313-.1843318-.8479263-.156682-1.0414747.0552996-.0737327.0737327-.2488479 1.3179723-.4516129 3.2073733l-.3410138 3.0875576.3225807 4.4792628c.1843318 2.4608295.3317972 4.562212.3317972 4.6728111 0 .1013825.0645161.2580645.1474654.3317973.1751152.1751152.8571429.1935483 1.0783411.0368663zm-5.576037-5.4377881c.046083-.0645161.2949309-1.0138249.5345622-2.1198157l.4423964-1.9907834-.4423964-1.9723503c-.2488479-1.078341-.4792626-2-.516129-2.0368664-.1105991-.1290322-.8387097-.0921659-.9769585.046083-.0737328.0645161-.3041475.9861751-.5161291 2.0368664l-.3778802 1.9078341.3963134 2.0276498c.2857143 1.483871.4331797 2.0552996.5437788 2.1198157.2119816.1290323.8018433.1105991.9124424-.0184332z" fill="#ff3a00" transform="matrix(1 0 0 -1 0 79.999999)"/></svg>