<svg height="80" viewBox="0 0 80 80" width="80" xmlns="http://www.w3.org/2000/svg"><path d="m39.9974994 0c-22.088022 0-39.9974994 18.3616883-39.9974994 41.0125563 0 18.1181305 11.4578645 33.4904683 27.3568392 38.9153961 2.0005001.3743097 2.6306577-.8409151 2.6306577-1.9279517 0-.9742309.020005-3.6969498 0-7.1195767-11.1252813 2.4791612-13.4308577-5.4018538-13.4308577-5.4018538-1.8179545-4.7378386-4.4386097-5.9992113-4.4386097-5.9992113-3.63090772-2.5432553.2725681-2.4945438.2725681-2.4945438 4.0135034.2897055 6.1290323 4.2276493 6.1290323 4.2276493 3.5683921 6.2632791 9.35984 4.4532606 11.6379095 3.4072443.3650913-2.6509335 1.4003501-4.4583881 2.5431358-5.4838943-8.8822206-1.0357613-18.2195549-4.5532475-18.2195549-20.2691298 0-4.4788983 1.5578895-8.1373917 4.116029-11.0036815-.4126032-1.0357612-1.787947-5.2070076.3925981-10.854983 0 0 3.3583396-1.1024191 10.9977495 4.2071392 3.1907977-.9101368 6.6141535-1.3639233 10.0150037-1.3793058 3.3983496.0153825 6.8192048.469169 10.0150038 1.3793058 7.6394098-5.3069945 10.9927482-4.2071392 10.9927482-4.2071392 2.1805451 5.6479754.8077019 9.8192218.3975994 10.854983 2.5581395 2.8662898 4.1110277 6.5247832 4.1110277 11.0036815 0 15.7569025-9.3523381 19.2231135-18.2645661 20.2358008 1.4353588 1.2690639 2.7381845 3.7302788 2.7381845 7.5554169v11.3523535c0 1.0972916.6451613 2.3099527 2.6756689 1.912569 15.883971-5.432619 27.331833-20.7972655 27.331833-38.9102685 0-22.650868-17.9094774-41.0125563-40.0025006-41.0125563z" fill="#181616" fill-rule="evenodd"/></svg>