<svg height="80" viewBox="0 0 80 80" width="80" xmlns="http://www.w3.org/2000/svg"><path d="m62.4493333 58.8493333v-15.616c0-8.3666666-4.4666666-12.26-10.4213333-12.26-4.8053333 0-6.9586667 2.644-8.1586667 4.4986667v-3.8586667h-9.0533333c.12 2.556 0 27.236 0 27.236h9.0533333v-15.2106666c0-.812.0586667-1.6253334.2986667-2.2066667.6533333-1.6266667 2.1426667-3.3106667 4.6426667-3.3106667 3.2773333 0 4.5866666 2.4973334 4.5866666 6.1573334v14.572h9.052zm-37.1706666-30.9533333c3.156 0 5.1226666-2.0933333 5.1226666-4.708-.0586666-2.6706667-1.9666666-4.704-5.0626666-4.704s-5.1213334 2.032-5.1213334 4.704c0 2.6146667 1.9653334 4.708 5.004 4.708zm14.7213333 52.104c-22.0906667 0-40-17.9093333-40-40 0-22.092 17.9093333-40 40-40s40 17.908 40 40c0 22.0906667-17.9093333 40-40 40zm-10.1946667-21.1506667v-27.236h-9.052v27.236z" fill="#007ab9" fill-rule="evenodd"/></svg>